HIERARCHY
ROOT joint_Root
{
	OFFSET 0.0 0.0 0.0
	CHANNELS 6 Xposition Yposition Zposition Zrotation Xrotation Yrotation 
	JOINT Hips
	{
		OFFSET 4.5925 91.4895 -427.239
		CHANNELS 6 Xposition Yposition Zposition Zrotation Xrotation Yrotation 
		JOINT Spine
		{
			OFFSET 15.7357 0.0 0.0
			CHANNELS 6 Xposition Yposition Zposition Zrotation Xrotation Yrotation 
			JOINT Chest
			{
				OFFSET 8.98455 -0.406207 0.0
				CHANNELS 6 Xposition Yposition Zposition Zrotation Xrotation Yrotation 
				JOINT Neck
				{
					OFFSET 16.3773 0.0 0.0
					CHANNELS 6 Xposition Yposition Zposition Zrotation Xrotation Yrotation 
					JOINT Head
					{
						OFFSET 6.45672 0.0 0.0
						CHANNELS 6 Xposition Yposition Zposition Zrotation Xrotation Yrotation 
						End Site
						{
							OFFSET 0.0 0.0 0.0
						}
					}
				}
				JOINT Shoulder_L
				{
					OFFSET 12.9942 -0.242716 4.98039
					CHANNELS 6 Xposition Yposition Zposition Zrotation Xrotation Yrotation 
					JOINT UpperArm_L
					{
						OFFSET 5.34809 0.0 0.0
						CHANNELS 6 Xposition Yposition Zposition Zrotation Xrotation Yrotation 
						JOINT LowerArm_L
						{
							OFFSET 24.3286 1.87007e-05 0.0
							CHANNELS 6 Xposition Yposition Zposition Zrotation Xrotation Yrotation 
							JOINT Hand_L
							{
								OFFSET 22.2916 0.0 0.0
								CHANNELS 6 Xposition Yposition Zposition Zrotation Xrotation Yrotation 
								End Site
								{
									OFFSET 0.0 0.0 0.0
								}
							}
						}
					}
				}
				JOINT Shoulder_R
				{
					OFFSET 12.9945 -0.242716 -4.98039
					CHANNELS 6 Xposition Yposition Zposition Zrotation Xrotation Yrotation 
					JOINT UpperArm_R
					{
						OFFSET -5.34813 0.0 0.0
						CHANNELS 6 Xposition Yposition Zposition Zrotation Xrotation Yrotation 
						JOINT LowerArm_R
						{
							OFFSET -24.3289 0.000322201 0.0
							CHANNELS 6 Xposition Yposition Zposition Zrotation Xrotation Yrotation 
							JOINT Hand_R
							{
								OFFSET -22.2915 -0.000108084 0.0
								CHANNELS 6 Xposition Yposition Zposition Zrotation Xrotation Yrotation 
								End Site
								{
									OFFSET 0.0 0.0 0.0
								}
							}
						}
					}
				}
			}
		}
		JOINT UpperLeg_L
		{
			OFFSET -2.19248 -6.46944 0.0
			CHANNELS 6 Xposition Yposition Zposition Zrotation Xrotation Yrotation 
			JOINT LowerLeg_L
			{
				OFFSET 39.0811 0.0 -1.23785e-05
				CHANNELS 6 Xposition Yposition Zposition Zrotation Xrotation Yrotation 
				JOINT Foot_L
				{
					OFFSET 40.9854 0.0 -1.26872e-05
					CHANNELS 6 Xposition Yposition Zposition Zrotation Xrotation Yrotation 
					JOINT Toes_L
					{
						OFFSET 11.7543 0.0 0.0
						CHANNELS 6 Xposition Yposition Zposition Zrotation Xrotation Yrotation 
						End Site
						{
							OFFSET 0.0 0.0 0.0
						}
					}
				}
			}
		}
		JOINT UpperLeg_R
		{
			OFFSET -2.19251 6.46944 0.0
			CHANNELS 6 Xposition Yposition Zposition Zrotation Xrotation Yrotation 
			JOINT LowerLeg_R
			{
				OFFSET -39.0811 -0.00228153 -0.0401928
				CHANNELS 6 Xposition Yposition Zposition Zrotation Xrotation Yrotation 
				JOINT Foot_R
				{
					OFFSET -40.9854 0.0 0.0
					CHANNELS 6 Xposition Yposition Zposition Zrotation Xrotation Yrotation 
					JOINT Toes_R
					{
						OFFSET -11.7543 0.0 0.0
						CHANNELS 6 Xposition Yposition Zposition Zrotation Xrotation Yrotation 
						End Site
						{
							OFFSET 0.0 0.0 0.0
						}
					}
				}
			}
		}
	}
}
MOTION
Frames:	4
Frame Time:	0.0333333
0.000000 0.000000 0.000000 0.000000 0.000000 -0.000000 136.454000 88.450900 -64.904500 90.413500 -0.163833 4.423260 15.735700 0.000005 -0.000001 91.888400 83.628100 -90.583300 8.984550 -0.406207 -0.000000 4.967940 0.387282 2.590540 16.377300 -0.000001 -0.000001 -1.080360 -4.358410 3.843990 6.456720 -0.000001 -0.000000 -9.404840 -4.479030 3.929790 12.994200 -0.242716 4.980390 -91.236600 4.467440 -74.510900 5.348090 -0.000007 -0.000001 -66.796100 37.228200 -17.149700 24.328600 0.000019 0.000005 5.245970 18.721600 -16.011800 22.291600 -0.000001 0.000005 8.695210 5.236890 1.790420 12.994500 -0.242716 -4.980390 88.424800 11.426800 -82.098300 -5.348130 -0.000001 -0.000004 -55.952000 25.233300 -19.490000 -24.328900 0.000322 -0.000009 0.652555 1.970190 -18.356800 -22.291500 -0.000108 -0.000004 18.068700 5.377850 -2.232100 -2.192480 -6.469440 -0.000000 -176.388000 -6.612660 -14.407100 39.081100 -0.000007 -0.000012 0.026776 -0.008436 72.500100 40.985400 -0.000006 -0.000013 5.190950 -7.754310 -56.594300 11.754300 -0.000000 0.000003 -0.007496 -0.083881 -19.992000 -2.192510 6.469440 -0.000001 -179.987000 15.920500 175.744000 -39.081100 -0.002282 -0.040193 0.064350 -0.070074 41.074500 -40.985400 0.000008 0.000006 9.615930 2.516420 -78.490800 -11.754300 -0.000006 -0.000006 -0.003008 -0.040687 -18.227800
0.000000 0.000000 0.000000 0.000000 0.000000 -0.000000 136.503000 89.558300 -62.353700 90.628400 -2.579730 3.374340 15.735700 0.000005 -0.000001 96.023000 83.976000 -94.996000 8.984550 -0.406207 -0.000000 4.206000 1.230300 2.006740 16.377300 -0.000001 -0.000001 -1.422400 -4.057980 3.882870 6.456720 -0.000001 -0.000000 -9.455580 -4.430870 3.649540 12.994200 -0.242716 4.980390 -91.172700 4.094890 -74.004600 5.348090 -0.000007 -0.000001 -69.842900 35.578600 -11.535600 24.328600 0.000019 0.000005 4.314360 32.165400 -8.080980 22.291600 -0.000001 0.000005 3.734080 5.192140 2.930650 12.994500 -0.242716 -4.980390 88.721800 10.220200 -82.832500 -5.348130 -0.000001 -0.000004 -56.202500 24.209300 -22.645300 -24.328900 0.000322 -0.000009 0.594288 1.621990 -20.165200 -22.291500 -0.000108 -0.000004 18.261700 5.372880 -2.076120 -2.192480 -6.469440 -0.000000 -178.381000 -7.497550 -18.223100 39.081100 -0.000007 -0.000012 0.014930 -0.005889 68.453900 40.985400 -0.000006 -0.000013 6.196830 -8.121590 -59.867800 11.754300 -0.000000 0.000003 -0.008098 -0.088844 -20.194700 -2.192510 6.469440 -0.000001 178.983000 15.700200 177.664000 -39.081100 -0.002282 -0.040193 0.053067 -0.063828 37.952800 -40.985400 0.000008 0.000006 10.065100 5.341090 -75.573800 -11.754300 -0.000006 -0.000006 -0.010061 -0.104096 -20.814400
0.000000 0.000000 0.000000 0.000000 0.000000 -0.000000 136.640000 90.504000 -59.773900 90.794300 -5.026390 2.562780 15.735700 0.000005 -0.000001 100.171000 84.119300 -99.400500 8.984550 -0.406207 -0.000000 3.799280 2.047450 1.471870 16.377300 -0.000001 -0.000001 -2.062520 -3.791290 3.603260 6.456720 -0.000001 -0.000000 -9.927000 -4.432150 3.217010 12.994200 -0.242716 4.980390 -91.049600 3.550060 -73.516500 5.348090 -0.000007 -0.000001 -72.768400 30.844200 -5.267620 24.328600 0.000019 0.000005 1.406230 40.432500 -2.169170 22.291600 -0.000001 0.000005 2.437820 5.096610 5.186210 12.994500 -0.242716 -4.980390 88.933200 9.086870 -83.275800 -5.348130 -0.000001 -0.000004 -55.884500 24.083700 -25.827400 -24.328900 0.000322 -0.000009 0.152696 0.369222 -22.673000 -22.291500 -0.000108 -0.000004 17.619200 5.377790 -2.229640 -2.192480 -6.469440 -0.000000 -179.921000 -8.250950 -20.812900 39.081100 -0.000007 -0.000012 0.018647 -0.010144 61.442600 40.985400 -0.000006 -0.000013 5.143640 -6.987250 -62.642400 11.754300 -0.000000 0.000003 -0.006830 -0.078210 -19.760500 -2.192510 6.469440 -0.000001 177.777000 15.475800 179.390000 -39.081100 -0.002282 -0.040193 0.046058 -0.059961 35.499000 -40.985400 0.000008 0.000006 10.336000 8.266050 -72.432000 -11.754300 -0.000006 -0.000006 -0.023275 -0.184796 -24.129900
0.000000 0.000000 0.000000 0.000000 0.000000 -0.000000 136.727000 91.062600 -57.169400 90.611900 -7.466950 1.753850 15.735700 0.000005 -0.000001 104.310000 84.162600 -103.696000 8.984550 -0.406207 -0.000000 3.535300 2.859390 1.137860 16.377300 -0.000001 -0.000001 -2.857010 -3.439990 3.171040 6.456720 -0.000001 -0.000000 -10.666800 -4.408040 2.627680 12.994200 -0.242716 4.980390 -90.909600 2.972410 -72.977000 5.348090 -0.000007 -0.000001 -74.124600 24.762400 0.763625 24.328600 0.000019 0.000005 0.000295 39.541500 -0.000005 22.291600 -0.000001 0.000005 3.720250 4.992850 7.465200 12.994500 -0.242716 -4.980390 89.081800 8.221240 -83.605100 -5.348130 -0.000001 -0.000004 -54.655900 24.698100 -28.624700 -24.328900 0.000322 -0.000009 -0.361302 -0.723577 -26.436700 -22.291500 -0.000108 -0.000004 17.075000 5.386130 -2.492590 -2.192480 -6.469440 -0.000000 179.363000 -9.596380 -22.655000 39.081100 -0.000007 -0.000012 0.023945 -0.018373 52.494600 40.985400 -0.000006 -0.000013 3.736670 -4.789630 -63.634000 11.754300 -0.000000 0.000003 -0.007957 -0.087692 -20.147600 -2.192510 6.469440 -0.000001 177.010000 14.995200 -179.260000 -39.081100 -0.002282 -0.040193 0.045049 -0.062424 33.778400 -40.985400 0.000008 0.000006 10.544100 10.591800 -70.099000 -11.754300 -0.000006 -0.000006 -0.036434 -0.245571 -26.651000
